<?xml version="1.0" encoding="utf-8"?>
<!-- Generator: Adobe Illustrator 20.0.0, SVG Export Plug-In . SVG Version: 6.00 Build 0)  -->
<svg version="1.1" id="LEARN-OCON" xmlns="http://www.w3.org/2000/svg" xmlns:xlink="http://www.w3.org/1999/xlink" x="0px" y="0px"
	 viewBox="0 0 306 306" style="enable-background:new 0 0 306 306;" xml:space="preserve">
<style type="text/css">
	.st0{fill:#391310;}
	.st1{fill:#020202;}
	.st2{fill:url(#Rounded_Rectangle_1_copy_2_1_);}
	.st3{fill:url(#Rounded_Rectangle_1_copy_1_);}
	.st4{fill:#F04F41;}
	.st5{opacity:0.54;}
	.st6{fill:#FFFFFF;}
</style>
<g id="SCREEN_-ICON">
	<path class="st0" d="M0,0"/>
	<path id="Rounded_Rectangle_1" class="st1" d="M52,66h199c2.2,0,4,1.8,4,4v116c0,2.2-1.8,4-4,4H52c-2.2,0-4-1.8-4-4V70
		C48,67.8,49.8,66,52,66z"/>
	
		<linearGradient id="Rounded_Rectangle_1_copy_2_1_" gradientUnits="userSpaceOnUse" x1="126" y1="80" x2="179" y2="80" gradientTransform="matrix(1 0 0 -1 0 308)">
		<stop  offset="0" style="stop-color:#919191"/>
		<stop  offset="1" style="stop-color:#000000"/>
	</linearGradient>
	<path id="Rounded_Rectangle_1_copy_2" class="st2" d="M130,216h45c2.2,0,4,1.8,4,4v16c0,2.2-1.8,4-4,4h-45c-2.2,0-4-1.8-4-4v-16
		C126,217.8,127.8,216,130,216z"/>
	
		<linearGradient id="Rounded_Rectangle_1_copy_1_" gradientUnits="userSpaceOnUse" x1="48" y1="104.5" x2="256" y2="104.5" gradientTransform="matrix(1 0 0 -1 0 308)">
		<stop  offset="0" style="stop-color:#BDBDBD"/>
		<stop  offset="1" style="stop-color:#000000"/>
	</linearGradient>
	<path id="Rounded_Rectangle_1_copy" class="st3" d="M52,190h200c2.2,0,4,1.8,4,4v19c0,2.2-1.8,4-4,4H52c-2.2,0-4-1.8-4-4v-19
		C48,191.8,49.8,190,52,190z"/>
	<rect x="56" y="74" class="st4" width="193" height="108"/>
</g>
<g class="st5">
	<path class="st6" d="M198.5,111.6h-22.1c-3-6.6-8.2-12-14.6-15.2l1-15.9l-9.2,13.1c-2-0.4-4-0.6-6.1-0.6c-12.3,0-23,7-28.2,17.2
		l-8.6-0.4l6.1,7c-0.7,2.5-1,5.2-1,7.9c0,5.8,1.6,11.2,4.3,15.9L98,168.5l30.7-18.2c5.3,3.9,11.8,6.2,18.8,6.2
		c1.5,0,3.1-0.1,4.6-0.3l10.1,13V153c10.2-5.3,17.1-15.9,17.1-28.2c0-0.6,0-1.3-0.1-1.9L198.5,111.6z M163.5,132
		c0,1.6-0.1,3-0.2,4.2c-0.1,1.2-0.3,2.3-0.4,3.2c-0.6,2.6-1.7,4.8-3.3,6.6c-3.1,3.5-7.3,5.3-12.7,5.3c-4.5,0-8.3-1.2-11.2-3.7
		c-3-2.5-4.8-6-5.2-10.4h7.9c0.3,1.7,0.8,3,1.5,3.9c1.6,2.1,4,3.2,7.1,3.2c5.7,0,8.6-3.5,8.6-10.6V129c-3.1,3.2-6.7,4.8-10.8,4.8
		c-4.6,0-8.4-1.7-11.4-5c-3-3.4-4.5-7.6-4.5-12.7c0-5,1.4-9.2,4.2-12.6c3-3.7,6.9-5.5,11.8-5.5c4.3,0,7.8,1.6,10.7,4.8V99h7.9
		L163.5,132L163.5,132z"/>
	<path class="st6" d="M146.5,104.9c-3,0-5.3,1.1-7.1,3.3c-1.6,2-2.3,4.5-2.3,7.7c0,3.1,0.8,5.6,2.3,7.6c1.7,2.2,4,3.2,7.1,3.2
		c3,0,5.4-1.1,7.1-3.3c1.6-2,2.4-4.5,2.4-7.6c0-3.3-0.9-5.9-2.7-7.9C151.6,105.9,149.3,104.9,146.5,104.9z"/>
</g>
</svg>
