<?xml version="1.0" encoding="utf-8"?>
<!-- Generator: Adobe Illustrator 20.0.0, SVG Export Plug-In . SVG Version: 6.00 Build 0)  -->
<svg version="1.1" id="LAUNCH_INCON" xmlns="http://www.w3.org/2000/svg" xmlns:xlink="http://www.w3.org/1999/xlink" x="0px"
	 y="0px" viewBox="0 0 388 306" style="enable-background:new 0 0 388 306;" xml:space="preserve">
<style type="text/css">
	.st0{fill:#391310;}
	.st1{fill:none;enable-background:new    ;}
	.st2{clip-path:url(#Ellipse_2_copy_5_);}
	.st3{fill:#F04F41;stroke:#000000;stroke-width:3.2162;stroke-miterlimit:10;}
	.st4{fill:#F04F41;}
	.st5{fill:#231F20;}
	.st6{fill:#EF4E40;stroke:#231F20;stroke-width:3.2162;stroke-miterlimit:10;}
	.st7{clip-path:url(#SVGID_2_);fill:none;stroke:#F04F41;stroke-width:1.745;stroke-miterlimit:10;}
	.st8{clip-path:url(#SVGID_4_);fill:none;stroke:#F04F41;stroke-width:1.745;stroke-miterlimit:10;}
	.st9{fill:#EF4E40;}
	.st10{clip-path:url(#Ellipse_2_copy_6_);fill:#FFFFFF;}
</style>
<circle id="Ellipse_2_copy" class="st0" cx="153" cy="153" r="153"/>
<path class="st1" d="z"/>
<path class="st1" d="z"/>
<g>
	<defs>
		<circle id="Ellipse_2_copy_1_" cx="153" cy="153" r="153"/>
	</defs>
	<clipPath id="Ellipse_2_copy_2_">
		<use xlink:href="#Ellipse_2_copy_1_"  style="overflow:visible;"/>
	</clipPath>
</g>
<g>
	<defs>
		<circle id="Ellipse_2_copy_3_" cx="156" cy="151" r="153"/>
	</defs>
	<clipPath id="Ellipse_2_copy_5_">
		<use xlink:href="#Ellipse_2_copy_3_"  style="overflow:visible;"/>
	</clipPath>
	<g class="st2">
		<g>
			<path class="st3" d="M-37.1,200.1c-1.6,0.4-14.8,21.6,14.1,40.1c1.2,0.8,2.5-1.4,3.6-2.2l-0.3,1.8l0.3-1.8l67.6,145.5l18.9-4.7
				L16.6,255.5L198.7,221l6.6-2.2L129.9,57.2l-4.5,2.5L-37.1,200.1z"/>
			<path d="M191.5,127.3c21.8,44.7,29.1,86,16.3,92.2c-12.8,6.2-40.8-25-62.6-69.7s-28.8-89-16.1-95.3S169.7,82.6,191.5,127.3z"/>
			<path class="st4" d="M151.9,168.1l35.9-22.8c2.9-1.8,4-5.4,2.6-8.5l-6.2-14.1c-1.4-3.1-4.8-4.7-8-3.9l-41.1,10.9
				c-4.1,1.1-6.2,5.5-4.5,9.4l11.4,25.9C143.6,168.9,148.3,170.4,151.9,168.1z"/>
			<path d="M141.1,64.1c0,0-5.7,39.4,0.6,61.3c2.9,10.1,13.1,36.6,24.7,48.8c10.1,10.6-0.4,10.9-0.4,10.9s-24.7-34.7-32-63.1
				C126.7,93.5,141.1,64.1,141.1,64.1z"/>
			<polygon class="st5" points="47.7,382.2 67.1,378.8 61.3,366.1 21.4,253.1 -0.8,256.4 			"/>
			<line class="st6" x1="-33.5" y1="231.8" x2="-25.1" y2="227.7"/>
			<line class="st6" x1="-38.2" y1="222.2" x2="-29.8" y2="218.1"/>
			<line class="st6" x1="-40.9" y1="211.6" x2="-32.5" y2="207.5"/>
		</g>
		<g>
			<defs>
				<polygon id="SVGID_1_" points="96.5,47.5 140.3,39.7 183.9,112.9 158.6,83.7 				"/>
			</defs>
			<clipPath id="SVGID_2_">
				<use xlink:href="#SVGID_1_"  style="overflow:visible;"/>
			</clipPath>
			<path class="st7" d="M187.9,132.7c-19-45.9-45.1-78.8-58.3-73.3"/>
		</g>
		<g>
			<defs>
				<polygon id="SVGID_3_" points="190.6,235.6 224.6,222.4 211.8,177.4 196.6,155.5 				"/>
			</defs>
			<clipPath id="SVGID_4_">
				<use xlink:href="#SVGID_3_"  style="overflow:visible;"/>
			</clipPath>
			<path class="st8" d="M186.4,125.1c21.8,44.7,29.1,86,16.3,92.2"/>
		</g>
	</g>
</g>
<path class="st9" d="M264.1,130.6"/>
<g>
	<defs>
		<circle id="Ellipse_2_copy_4_" cx="153" cy="153" r="153"/>
	</defs>
	<clipPath id="Ellipse_2_copy_6_">
		<use xlink:href="#Ellipse_2_copy_4_"  style="overflow:visible;"/>
	</clipPath>
	<polygon class="st10" points="272.8,41.8 207.7,96 254.9,40.3 	"/>
	<polygon class="st10" points="354.7,70.4 240.5,99.5 327.6,58.6 	"/>
	<polygon class="st10" points="228.7,126.4 307.2,115.2 307.1,129.2 	"/>
</g>
</svg>
