<?xml version="1.0" encoding="utf-8"?>
<!-- Generator: Adobe Illustrator 20.0.0, SVG Export Plug-In . SVG Version: 6.00 Build 0)  -->
<svg version="1.1" id="LEARN-OCON" xmlns="http://www.w3.org/2000/svg" xmlns:xlink="http://www.w3.org/1999/xlink" x="0px" y="0px"
	 viewBox="0 0 306 306" style="enable-background:new 0 0 306 306;" xml:space="preserve">
<style type="text/css">
	.st0{fill:#391310;}
	.st1{fill:#020202;}
	.st2{fill:url(#Rounded_Rectangle_1_copy_2_1_);}
	.st3{fill:url(#Rounded_Rectangle_1_copy_1_);}
	.st4{fill:#F04F41;}
</style>
<circle id="Ellipse_2_copy" class="st0" cx="153" cy="153" r="153"/>
<g id="SCREEN_-ICON">
	<path class="st0" d="M0,0"/>
	<path id="Rounded_Rectangle_1" class="st1" d="M52,66h199c2.2,0,4,1.8,4,4v116c0,2.2-1.8,4-4,4H52c-2.2,0-4-1.8-4-4V70
		C48,67.8,49.8,66,52,66z"/>
	
		<linearGradient id="Rounded_Rectangle_1_copy_2_1_" gradientUnits="userSpaceOnUse" x1="126" y1="80" x2="179" y2="80" gradientTransform="matrix(1 0 0 -1 0 308)">
		<stop  offset="0" style="stop-color:#919191"/>
		<stop  offset="1" style="stop-color:#000000"/>
	</linearGradient>
	<path id="Rounded_Rectangle_1_copy_2" class="st2" d="M130,216h45c2.2,0,4,1.8,4,4v16c0,2.2-1.8,4-4,4h-45c-2.2,0-4-1.8-4-4v-16
		C126,217.8,127.8,216,130,216z"/>
	
		<linearGradient id="Rounded_Rectangle_1_copy_1_" gradientUnits="userSpaceOnUse" x1="48" y1="104.5" x2="256" y2="104.5" gradientTransform="matrix(1 0 0 -1 0 308)">
		<stop  offset="0" style="stop-color:#BDBDBD"/>
		<stop  offset="1" style="stop-color:#000000"/>
	</linearGradient>
	<path id="Rounded_Rectangle_1_copy" class="st3" d="M52,190h200c2.2,0,4,1.8,4,4v19c0,2.2-1.8,4-4,4H52c-2.2,0-4-1.8-4-4v-19
		C48,191.8,49.8,190,52,190z"/>
	<rect x="56" y="74" class="st4" width="193" height="108"/>
</g>
</svg>
