<?xml version="1.0" encoding="utf-8"?>
<!-- Generator: Adobe Illustrator 20.0.0, SVG Export Plug-In . SVG Version: 6.00 Build 0)  -->
<svg version="1.1" id="SUPPORT-ICON" xmlns="http://www.w3.org/2000/svg" xmlns:xlink="http://www.w3.org/1999/xlink" x="0px"
	 y="0px" viewBox="0 0 306 306" style="enable-background:new 0 0 306 306;" xml:space="preserve">
<style type="text/css">
	.st0{fill:#391310;}
	.st1{fill:none;enable-background:new    ;}
	.st2{enable-background:new    ;}
	.st3{fill:#FFFFFF;}
	.st4{fill:#F04F41;}
</style>
<circle id="Ellipse_2_copy" class="st0" cx="153" cy="153" r="153"/>
<path class="st1" d="z"/>
<g class="st2">
	<path class="st3" d="M165.8,8.8v28.9c11.6,1.9,21.1,5.7,28.4,11.5c7.4,5.8,14.4,14.7,21.1,26.7l-28.7,16.1
		c-8.6-15.7-19.9-23.6-33.9-23.6c-8.6,0-15.8,2.6-21.5,7.7c-5.7,5.1-8.5,11.5-8.5,19.1c0,7,2.3,12.8,6.9,17.4
		c4.5,4.5,13.6,9.9,27.4,16.1c11.9,5.4,21.7,10.5,29.5,15.2c7.8,4.8,13.6,9.4,17.5,13.8c11.1,12,16.6,26.5,16.6,43.4
		c0,16.7-5,31.4-15,44.2c-9.9,12.7-23.2,21.2-39.8,25.6v30.5H140v-29.6c-19.2-3.1-33.9-9.8-44-19.9c-10.1-10.1-17.6-25.7-22.4-46.8
		l32.4-6.8c4.4,14.9,9.8,25.6,16.2,32c6.7,6.1,15.6,9.1,26.7,9.1c10.8,0,19.8-3.5,27.1-10.5c7.2-6.9,10.8-15.8,10.8-26.7
		c0-9.7-3-17.5-9-23.4c-3-2.8-7.5-6.1-13.5-9.6c-5.9-3.6-13.5-7.5-22.8-11.7c-19-8.5-31.6-16.4-37.6-23.6
		c-9.5-10.7-14.3-23.5-14.3-38.4c0-7.1,1.1-13.6,3.4-19.7c2.3-6.1,5.5-11.6,9.8-16.6c4.3-5,9.5-9.3,15.8-12.9
		c6.3-3.6,13.4-6.5,21.4-8.5V8.8H165.8z"/>
</g>
<g class="st2">
	<path class="st4" d="M159.8,8.8v28.9c11.6,1.9,21.1,5.7,28.4,11.5c7.4,5.8,14.4,14.7,21.1,26.7l-28.7,16.1
		c-8.6-15.7-19.9-23.6-33.9-23.6c-8.6,0-15.8,2.6-21.5,7.7c-5.7,5.1-8.5,11.5-8.5,19.1c0,7,2.3,12.8,6.9,17.4
		c4.5,4.5,13.6,9.9,27.4,16.1c11.9,5.4,21.7,10.5,29.5,15.2c7.8,4.8,13.6,9.4,17.5,13.8c11.1,12,16.6,26.5,16.6,43.4
		c0,16.7-5,31.4-15,44.2c-9.9,12.7-23.2,21.2-39.8,25.6v30.5H134v-29.6c-19.2-3.1-33.9-9.8-44-19.9c-10.1-10.1-17.6-25.7-22.4-46.8
		l32.4-6.8c4.4,14.9,9.8,25.6,16.2,32c6.7,6.1,15.6,9.1,26.7,9.1c10.8,0,19.8-3.5,27.1-10.5c7.2-6.9,10.8-15.8,10.8-26.7
		c0-9.7-3-17.5-9-23.4c-3-2.8-7.5-6.1-13.5-9.6c-5.9-3.6-13.5-7.5-22.8-11.7c-19-8.5-31.6-16.4-37.6-23.6
		c-9.5-10.7-14.3-23.5-14.3-38.4c0-7.1,1.1-13.6,3.4-19.7c2.3-6.1,5.5-11.6,9.8-16.6c4.3-5,9.5-9.3,15.8-12.9
		c6.3-3.6,13.4-6.5,21.4-8.5V8.8H159.8z"/>
</g>
</svg>
