<?xml version="1.0" encoding="utf-8"?>
<!-- Generator: Adobe Illustrator 20.0.0, SVG Export Plug-In . SVG Version: 6.00 Build 0)  -->
<svg version="1.1" id="Layer_1" xmlns="http://www.w3.org/2000/svg" xmlns:xlink="http://www.w3.org/1999/xlink" x="0px" y="0px"
	 viewBox="0 0 177.3 157.6" style="enable-background:new 0 0 177.3 157.6;" xml:space="preserve">
<style type="text/css">
	.st0{fill:#FFFFFF;}
</style>
<g>
	<path class="st0" d="M159,58.5h-30.7c-4.2-9.2-11.4-16.6-20.3-21.1l1.4-22.1L96.6,33.5c-2.7-0.5-5.6-0.8-8.5-0.8
		c-17.1,0-31.9,9.7-39.3,24l-11.9-0.6l8.5,9.7c-0.9,3.5-1.4,7.2-1.4,11c0,8.1,2.2,15.6,5.9,22.1l-30.7,38.7L62,112.3
		c7.3,5.4,16.4,8.6,26.2,8.6c2.1,0,4.3-0.2,6.3-0.5l14,18V116c14.1-7.3,23.8-22.1,23.8-39.2c0-0.9,0-1.8-0.1-2.7L159,58.5z
		 M110.4,86.8c0,2.2-0.1,4.2-0.2,5.9c-0.1,1.7-0.3,3.2-0.6,4.5c-0.8,3.6-2.3,6.6-4.6,9.2c-4.3,4.9-10.1,7.4-17.6,7.4
		c-6.3,0-11.5-1.7-15.6-5.1c-4.2-3.5-6.6-8.3-7.3-14.5h11c0.4,2.3,1.1,4.1,2.1,5.4c2.3,2.9,5.6,4.4,9.9,4.4c8,0,12-4.9,12-14.7v-6.6
		c-4.3,4.4-9.3,6.7-15,6.7c-6.4,0-11.7-2.3-15.8-7c-4.1-4.7-6.2-10.6-6.2-17.7c0-6.9,1.9-12.8,5.8-17.6c4.1-5.1,9.6-7.7,16.4-7.7
		c6,0,10.9,2.2,14.9,6.7v-5.3h10.9V86.8z"/>
	<path class="st0" d="M86.6,49.1c-4.1,0-7.4,1.5-9.8,4.6c-2.2,2.8-3.3,6.3-3.3,10.7c0,4.3,1.1,7.8,3.3,10.6c2.4,3,5.6,4.5,9.8,4.5
		s7.5-1.5,9.9-4.6c2.2-2.8,3.4-6.3,3.4-10.6c0-4.6-1.2-8.3-3.7-11C93.7,50.5,90.5,49.1,86.6,49.1z"/>
</g>
</svg>
